<svg style="display: none;" aria-hidden="true" xmlns="http://www.w3.org/2000/svg" xmlns:xlink="http://www.w3.org/1999/xlink"><symbol fill="currentColor" viewBox="0 0 16 16" id="svg-close"><path d="M15.59 2.39A1.4 1.4 0 1 0 13.61.41L8 6.02 2.39.41A1.4 1.4 0 1 0 .41 2.39L6.02 8 .41 13.61a1.4 1.4 0 0 0 1.98 1.98L8 9.98l5.61 5.61a1.4 1.4 0 1 0 1.98-1.98L9.98 8l5.61-5.61Z"/></symbol><symbol fill="none" viewBox="0 0 12 20" id="svg-ok"><path fill="#fff" d="M10.493 13.026c-1.091.702-2.533.975-3.507 1.053l.818.819 2.962 2.964c1.09 1.13-.702 2.886-1.793 1.794-.74-.741-1.832-1.833-2.962-3.003L3.05 19.656c-1.13 1.053-2.884-.702-1.793-1.794.78-.741 1.832-1.833 2.962-2.964l.818-.82c-.974-.077-2.455-.35-3.546-1.052-1.247-.82-1.793-1.287-1.325-2.301.312-.546 1.091-1.053 2.143-.195 0 0 1.403 1.13 3.702 1.13 2.26 0 3.702-1.13 3.702-1.13 1.014-.82 1.832-.351 2.105.195.506 1.014-.078 1.482-1.325 2.3ZM.945 5.07C.945 2.262 3.205 0 6.011 0c2.767 0 5.027 2.262 5.027 5.07 0 2.808-2.26 5.07-5.027 5.07A5.058 5.058 0 0 1 .945 5.07Zm2.572 0a2.487 2.487 0 0 0 2.494 2.496c1.364 0 2.455-1.131 2.455-2.496s-1.09-2.496-2.455-2.496A2.487 2.487 0 0 0 3.517 5.07Z"/></symbol><symbol fill="none" viewBox="0 0 19 19" id="svg-tg"><path fill="#fff" d="M17.734.39 1.422 9.778c-.633.352-.563 1.266.07 1.512l3.762 1.582 10.09-8.895c.176-.175.457.07.281.282l-8.438 10.3v2.848a.832.832 0 0 0 1.477.563l2.25-2.743 4.36 1.864a.843.843 0 0 0 1.16-.668l2.53-15.188c.142-.703-.632-1.195-1.23-.843Z"/></symbol><symbol fill="none" viewBox="0 0 20 12" id="svg-vk"><path fill="#fff" d="M19.557.816c.111-.445 0-.816-.668-.816h-2.19c-.556 0-.816.297-.965.63 0 0-1.113 2.71-2.671 4.491-.52.483-.743.668-1.04.668-.11 0-.333-.185-.333-.63V.815c0-.555-.15-.815-.631-.815H7.645c-.372 0-.557.26-.557.52 0 .52.78.63.853 2.115v3.228c0 .705-.11.854-.408.854-.742 0-2.523-2.746-3.6-5.863C3.712.26 3.489 0 2.933 0H.742C.148 0 0 .297 0 .63c0 .595.742 3.452 3.451 7.274 1.819 2.598 4.38 3.971 6.68 3.971 1.373 0 1.559-.297 1.559-.816 0-2.487-.112-2.746.556-2.746.334 0 .89.185 2.19 1.447 1.484 1.484 1.744 2.115 2.56 2.115h2.19c.63 0 .927-.297.742-.928-.409-1.261-3.192-3.933-3.34-4.119-.334-.408-.223-.594 0-.965 0 0 2.672-3.785 2.969-5.047Z"/></symbol></svg>